<svg xmlns="http://www.w3.org/2000/svg" viewBox="0 0 33.48 28.57"><defs><style>.cls-1{fill:#fff;}.cls-2{fill:#010101;}</style></defs><g id="Capa_2" data-name="Capa 2"><g id="Capa_1-2" data-name="Capa 1"><path class="cls-1" d="M10.52,10.67a.54.54,0,0,1,0-.45.47.47,0,0,1,.3-.18,1.85,1.85,0,0,1,1.73,1,6.28,6.28,0,0,1,1.12,3,.67.67,0,0,0,.15.46.45.45,0,0,0,.64-.16,1.29,1.29,0,0,0,.12-.73L14.32,5.4a9,9,0,0,1,.23-3c.19-.63.73-1.31,1.37-1.14s.71.71.81,1.22a14.59,14.59,0,0,1,.18,2.19Q17,8,17,11.31a8.66,8.66,0,0,1,1.19-.57.37.37,0,0,1,.23,0c.09,0,.15.11.21.19l.69,1a3.91,3.91,0,0,1,1.54-.62.71.71,0,0,1,.52.05.7.7,0,0,1,.25.33A4.12,4.12,0,0,1,22,13a1.7,1.7,0,0,1,1.63.1,1.34,1.34,0,0,1,.34.53c1.05,2.4.69,5.14.32,7.74l-.8,5.5a1.82,1.82,0,0,1-.13.51c-.26.52-.95.63-1.53.66a43.08,43.08,0,0,1-5.33,0,1.25,1.25,0,0,1-.74-.2c-.4-.33-.27-.95-.27-1.47a5.73,5.73,0,0,0-1.38-3c-2-3-2.72-6.51-3.24-10C10.76,12.47,10.71,11.58,10.52,10.67Z"/><path class="cls-2" d="M32.86,3.31H24.5a.63.63,0,0,1,0-1.25h8.36a.63.63,0,0,1,0,1.25Z"/><path class="cls-2" d="M30,5.42a.62.62,0,0,1-.5-.25.62.62,0,0,1,.13-.87l2.11-1.59L29.66,1.12a.62.62,0,0,1-.13-.87.63.63,0,0,1,.88-.13l2.77,2.09a.63.63,0,0,1,0,1L30.41,5.3a.66.66,0,0,1-.38.12Z"/><path class="cls-2" d="M9.27,3.31H1.17a.63.63,0,0,1,0-1.25h8.1a.63.63,0,0,1,0,1.25Z"/><path class="cls-2" d="M3.4,5.42A.63.63,0,0,1,3,5.3L.25,3.21a.63.63,0,0,1,0-1L3,.13A.61.61,0,0,1,3.9.25a.62.62,0,0,1-.12.87L1.66,2.71,3.78,4.3a.62.62,0,0,1,.12.87.6.6,0,0,1-.5.25Z"/><path class="cls-2" d="M22.77,28.57H16.09a1.14,1.14,0,0,1-1.21-.72c0-.16,0-2.18-.14-2.4-2.45-3.12-4.19-9.69-4.27-10,0,0,0-.05,0-.08L9.9,10c0-.15,0-.46.16-.5,2.53-.41,3.85,1.5,3.93,4.07.08-2.75.17-7.16.22-10.43.11-2,1-2.25,1.57-2.25.7,0,1.46.54,1.62,1.75v0l.19,7.65a1.61,1.61,0,0,1,.64-.14,1.86,1.86,0,0,1,1.56.73,1.67,1.67,0,0,1,.87-.24,1.71,1.71,0,0,1,1.78,1.6v.14a1.84,1.84,0,0,1,.65-.13,1.71,1.71,0,0,1,1.69,1.64,37.19,37.19,0,0,1-.71,11.15c0,.15-.08,2.23-.11,2.57a1.07,1.07,0,0,1-1.19.93Zm-6.91-1.06H23c0-.22,0-2.43,0-2.66A36.26,36.26,0,0,0,23.73,14c0-.21-.13-.7-.64-.7-.28,0-.65.23-.65.46a.53.53,0,1,1-1.06,0V12.27a.7.7,0,0,0-.72-.54.52.52,0,0,0-.57.54.53.53,0,1,1-1.06,0v-.44c0-.3-.27-.59-.8-.59a.72.72,0,0,0-.61.48.52.52,0,0,1-.56.42.53.53,0,0,1-.49-.51l-.23-8.91c-.06-.48-.28-.8-.56-.8s-.49,1-.51,1.24c-.09,5.77-.24,12.77-.38,13.2a.51.51,0,0,1-.51.36c-.6-.06-1.44-3-1.44-3.06,0-.68-.2-2.76-1.92-3.15l.49,4.73c.14.55,1.84,6.72,4.07,9.56a8,8,0,0,1,.28,2.71Z"/><path class="cls-2" d="M17.09,12.91a.53.53,0,0,1-.53-.53v-.74a.53.53,0,1,1,1.05,0v.74A.52.52,0,0,1,17.09,12.91Z"/><path class="cls-2" d="M19.56,13.65a.53.53,0,0,1-.53-.53v-.74a.53.53,0,1,1,1.06,0v.74a.53.53,0,0,1-.53.53Z"/><path class="cls-2" d="M21.91,15.26a.53.53,0,0,1-.53-.53v-.87a.53.53,0,0,1,1.06,0v.87A.53.53,0,0,1,21.91,15.26Z"/><path class="cls-2" d="M17.5,17.33a2.62,2.62,0,0,1,.45,1.1,3.8,3.8,0,0,1-.1,1.11c-.09.73-.21,1.47-.35,2.2h-.1c-.15-.73-.26-1.47-.35-2.2a3.8,3.8,0,0,1-.1-1.11,2.5,2.5,0,0,1,.45-1.1Z"/><path class="cls-2" d="M19.39,17.33a2.43,2.43,0,0,1,.45,1.06,3.41,3.41,0,0,1-.1,1.05c-.09.71-.21,1.41-.35,2.11h-.1c-.15-.7-.26-1.4-.35-2.11a2.89,2.89,0,0,1-.1-1.05,2.21,2.21,0,0,1,.45-1.06Z"/><path class="cls-2" d="M21.43,17.55a2.07,2.07,0,0,1,.45,1,2.61,2.61,0,0,1-.1,1,19.94,19.94,0,0,1-.35,2h-.1c-.14-.67-.26-1.33-.35-2a3.07,3.07,0,0,1-.1-1,2.27,2.27,0,0,1,.45-1Z"/></g></g></svg>