<svg xmlns="http://www.w3.org/2000/svg" xmlns:xlink="http://www.w3.org/1999/xlink" viewBox="0 0 533.06 690.29"><defs><style>.cls-1,.cls-7{fill:none;}.cls-2{fill:#ca9730;}.cls-3{fill:#252525;}.cls-4{opacity:0.1;fill:url(#New_Pattern_1a);}.cls-5,.cls-6,.cls-8{fill:#b9a057;}.cls-6{stroke:#b9a056;stroke-width:1.6px;}.cls-6,.cls-7,.cls-8{stroke-miterlimit:10;}.cls-7{stroke-width:12.11px;stroke:url(#New_Gradient_Swatch_1);}.cls-8{fill-opacity:0.45;stroke:#b9a057;stroke-width:2.7px;}</style><pattern id="New_Pattern_1a" data-name="New Pattern 1a" width="52" height="52" patternTransform="translate(-4702.2 -1222.06) scale(0.69 0.89)" patternUnits="userSpaceOnUse" viewBox="0 0 52 52"><rect class="cls-1" width="52" height="52"/><circle class="cls-2" cx="39" cy="52" r="1.5"/><circle class="cls-2" cx="13" cy="52" r="1.5"/><circle class="cls-2" cx="52" cy="26" r="1.5"/><circle class="cls-2" cx="26" cy="26" r="1.5"/><circle class="cls-2" cy="26" r="1.5"/><circle class="cls-2" cx="39" r="1.5"/><circle class="cls-2" cx="13" r="1.5"/></pattern><linearGradient id="New_Gradient_Swatch_1" x1="-4691.19" y1="3592.47" x2="-4206.51" y2="3592.47" gradientTransform="translate(-3325.93 -4087.82) rotate(-90)" gradientUnits="userSpaceOnUse"><stop offset="0"/><stop offset="0.22" stop-color="#fff"/><stop offset="0.47" stop-color="#414140"/><stop offset="0.72" stop-color="#fff"/><stop offset="1"/></linearGradient></defs><g id="Capa_2" data-name="Capa 2"><g id="Capa_1-2" data-name="Capa 1"><rect class="cls-3" y="2.12" width="533.06" height="688.17"/><rect class="cls-4" x="4.76" width="525.14" height="690.29"/><path class="cls-5" d="M117.08,457.44c-2.74,0-2.81.07-2.81,1.94V469c0,6.22.4,6.82,3.41,7.23l2.14.26a1.91,1.91,0,0,1,0,2.35c-3.81-.14-7.16-.21-10.17-.21-3.21,0-6.55.07-10,.21a1.91,1.91,0,0,1,0-2.35l1.6-.2c3.08-.4,3.42-1.07,3.42-7.29V444.13c0-6.22-.34-6.9-3.42-7.29l-1.6-.21a1.89,1.89,0,0,1,0-2.34c3.27.14,6.75.2,10,.2,3,0,6.36-.06,9.3-.2a1.89,1.89,0,0,1,0,2.34l-1.4.21c-2.88.39-3.28,1.07-3.28,7.29v7.76c0,1.93.07,2,2.81,2H131c2.81,0,2.81-.07,2.81-2v-7.76c0-6.22-.33-6.76-3.41-7.23l-1.8-.27a1.89,1.89,0,0,1,0-2.34c3.67.14,6.95.2,10.17.2s6.35-.06,9.43-.2a1.92,1.92,0,0,1,0,2.34l-1.34.21c-3.08.46-3.48,1.07-3.48,7.29V469c0,6.22.4,6.69,3.48,7.23l1.6.26a1.91,1.91,0,0,1,0,2.35c-3.34-.14-6.62-.21-9.69-.21q-5,0-9.84.21a1.91,1.91,0,0,1,0-2.35l1.47-.2c3.08-.4,3.41-1.07,3.41-7.29v-9.63c0-1.87,0-1.94-2.81-1.94Z"/><path class="cls-5" d="M163.32,461.32a4.19,4.19,0,0,1,.94,2.81,4.45,4.45,0,0,1-.88,2.6l-16,1.48a3.8,3.8,0,0,1-1-2.68,4.08,4.08,0,0,1,1-2.74Z"/><path class="cls-6" d="M169,452.1c0-5.41-.1-6.19-3.17-6.55l-.83-.11c-.32-.2-.21-1.14.1-1.3,2.23.11,4,.16,6.14.16H181a68.34,68.34,0,0,0,7-.16,59.58,59.58,0,0,1,.83,6.92,1,1,0,0,1-1.3.11c-.78-2.45-1.25-4.27-4-4.94a24.63,24.63,0,0,0-5-.32h-3.75c-1.56,0-1.56.11-1.56,2.09v10.4c0,1.46.15,1.46,1.72,1.46h3a19.93,19.93,0,0,0,4.43-.31c.62-.21,1-.53,1.25-1.83l.41-2.13c.26-.31,1.15-.31,1.35.05,0,1.25-.2,3.28-.2,5.26s.2,3.85.2,5c-.2.37-1.09.37-1.35.06l-.47-2a2.22,2.22,0,0,0-1.61-2,17.34,17.34,0,0,0-4-.26h-3c-1.57,0-1.72.05-1.72,1.4v7.34c0,2.76.15,4.53,1,5.41.62.63,1.72,1.2,6.29,1.2,4,0,5.52-.21,6.66-.78.94-.52,2.35-2.34,3.7-5.05a1,1,0,0,1,1.3.37,46.45,46.45,0,0,1-2.34,7.23c-4.69-.1-9.32-.16-14-.16H171.2c-2.24,0-4,.06-7.08.16a1,1,0,0,1-.1-1.3l1.71-.16c3-.26,3.23-1,3.23-6.5Z"/><path class="cls-6" d="M209.57,479.47a16.19,16.19,0,0,1-8.12-1.92c-.63-1.15-1.3-4.84-1.41-7.28.26-.37,1-.47,1.25-.16.78,2.65,2.92,7.75,9,7.75,4.38,0,6.51-2.86,6.51-6,0-2.29-.47-4.84-4.27-7.29l-4.94-3.22c-2.61-1.72-5.62-4.68-5.62-8.95,0-4.95,3.85-8.95,10.61-8.95a20.27,20.27,0,0,1,4.84.67,7,7,0,0,0,1.82.32,22.6,22.6,0,0,1,.94,6.34c-.21.32-1,.47-1.3.16-.68-2.5-2.08-5.88-7.08-5.88s-6.19,3.38-6.19,5.78c0,3,2.5,5.2,4.42,6.4l4.17,2.6c3.27,2,6.5,5.05,6.5,10C220.65,475.57,216.33,479.47,209.57,479.47Z"/><path class="cls-6" d="M237.42,447.89a22.41,22.41,0,0,1,14.05-4.42,39.91,39.91,0,0,1,9.21,1.25,3.88,3.88,0,0,0,1.46.2c.05,1.2.31,4.48.73,7.65a1.1,1.1,0,0,1-1.41.11c-.78-3.54-3.12-7.6-10.66-7.6-8,0-14.73,5.05-14.73,15.82,0,10.93,6.92,17,15.46,17a11.09,11.09,0,0,0,10.87-7.44,1.1,1.1,0,0,1,1.35.21,19.29,19.29,0,0,1-2.5,7.13,10.25,10.25,0,0,0-1.82.52,30.53,30.53,0,0,1-8.22,1.19,22.81,22.81,0,0,1-13-3.48,16.78,16.78,0,0,1-7.39-14.31A17.3,17.3,0,0,1,237.42,447.89Z"/><path class="cls-6" d="M272.4,461.84c0-10.41,7.81-18.37,18.53-18.37,12,0,18.06,8.69,18.06,17.85a17.76,17.76,0,0,1-18.06,18.15C279.38,479.47,272.4,471.2,272.4,461.84Zm31.39,1.09c0-8.59-3.8-17.85-13.74-17.85-5.41,0-12.44,3.69-12.44,15.09,0,7.7,3.75,17.69,14,17.69C297.85,477.86,303.79,473.18,303.79,462.93Z"/><path class="cls-6" d="M323.27,451.06c0-3.85-.21-4.83-2.55-5l-1.67-.16a.83.83,0,0,1,.05-1.3c2.81-.26,6.35-.42,11.19-.42,3.28,0,6.4.26,8.74,1.46a6.82,6.82,0,0,1,4,6.5c0,3.75-2.19,5.68-5.31,7.13,0,.52.42.68,1,.79a8.6,8.6,0,0,1,7,8.69c0,6-4.48,10.09-13.84,10.09-1.51,0-4.06-.16-6.25-.16s-4.05.11-6,.16a1,1,0,0,1-.1-1.3l.93-.16c2.76-.47,2.87-1,2.87-6.5Zm4.26,6.93c0,1.45.05,1.56,2.71,1.45,5.31-.21,8.17-1.77,8.17-6.66,0-5.1-3.8-7-7.75-7a6.4,6.4,0,0,0-2.4.31c-.52.16-.73.41-.73,1.35Zm0,12.07c0,1.87.11,4.53,1.1,5.67s2.54,1.46,4.11,1.46c4.63,0,8.17-2.09,8.17-7.29,0-4.11-2.08-8.9-10.36-8.9-2.81,0-3,.32-3,1.35Z"/><path class="cls-6" d="M374.49,466.57c-.37-1.14-.57-1.3-2.14-1.3H364.5c-1.3,0-1.62.16-2,1.25L360.7,472a20.25,20.25,0,0,0-1.15,4.32c0,.63.26.94,1.51,1l1.72.16a.84.84,0,0,1-.11,1.3c-1.35-.1-3-.1-5.41-.16-1.71,0-3.59.11-5,.16a1,1,0,0,1-.11-1.3l1.72-.16a3.43,3.43,0,0,0,3.12-2.55c.94-2.39,2.4-5.78,4.58-11.6l5.31-14.05c.73-1.87,1-2.86.88-3.7a5.84,5.84,0,0,0,2.71-2,.73.73,0,0,1,.78.47c.68,2.29,1.51,4.68,2.29,7l7.13,20.92c1.51,4.47,2.19,5.25,4.42,5.51l1.41.16a1,1,0,0,1,0,1.3c-2.14-.1-4-.16-6.3-.16-2.5,0-4.47.11-6,.16a.87.87,0,0,1-.11-1.3l1.51-.16c1.09-.1,1.82-.41,1.82-.94a10.84,10.84,0,0,0-.67-2.75Zm-10.31-4.63c-.41,1.2-.36,1.25,1.1,1.25h6.4c1.51,0,1.61-.21,1.14-1.61L370,453.09a34,34,0,0,0-1.19-3.28h-.11c-.15.26-.68,1.52-1.25,3.08Z"/><path class="cls-5" d="M428.5,469c0,6.16.4,6.63,3.41,7.16l1.81.33a1.93,1.93,0,0,1,0,2.35c-3.48-.14-6.42-.21-9.77-.21s-6.29.07-9.83.21a2.13,2.13,0,0,1,0-2.35l1.8-.33c3-.53,3.42-1,3.42-7.16v-8.23c0-1.34-.14-1.47-2.48-1.47a3.4,3.4,0,0,0-3.54,2.34A83.21,83.21,0,0,1,408.1,472c-3,4.82-6.82,7-13,7a16.06,16.06,0,0,1-5.28-.6,1.27,1.27,0,0,1,.26-1.74,8.11,8.11,0,0,0,4.49-1.87c3.21-2.74,6-7.76,10.37-16.72.33-.74.33-1.14-.34-1.47-3.08-1.54-7.09-4.08-7.09-10a11,11,0,0,1,5.89-9.9c2.54-1.54,7.42-2.41,13.11-2.41,6.35,0,11.57.27,16.59.61a1.51,1.51,0,0,1,.13,2.33l-1.81.27c-2.8.41-2.94,1.14-2.94,7.83Zm-9.16-28.23c0-3.21-.14-3.41-2.88-3.41-5.22,0-8.76,3.88-8.76,9.9,0,3.94,1.27,6.08,2.41,7.23a6.41,6.41,0,0,0,5.08,1.87c3.94,0,4.15-.2,4.15-2.55Z"/><path class="cls-7" d="M266.54,124.74C397,124.74,502.82,230.53,502.82,361S397,597.32,266.54,597.32,30.25,491.53,30.25,361,136,124.74,266.54,124.74Z"/><polygon class="cls-8" points="293.65 214.15 183.98 214.15 192.16 236.29 192.16 287.88 273.43 288 248.16 262.19 293.65 214.15"/><polygon class="cls-8" points="300.73 315.95 300.73 315.95 296.14 311.26 192.17 311.21 192.17 411.68 222.85 411.72 222.89 379.91 298.81 317.57 300.73 315.95"/><polygon class="cls-8" points="317.19 332.56 246.28 388.42 246.28 411.72 341.29 411.72 341.17 357.01 317.19 332.56"/><polygon class="cls-8" points="365.46 232.66 310.92 232.66 281.61 262.03 341.01 321.28 341.01 263.7 365.77 263.7 365.77 411.72 386.19 411.72 386.19 213.12 365.46 232.66"/><polygon class="cls-8" points="142.67 411.71 175.74 411.72 167.33 389.65 167.33 214.21 142.67 214.23 142.67 411.71"/><circle class="cls-5" cx="365.56" cy="232.7" r="4.16"/><circle class="cls-5" cx="312.08" cy="232.7" r="4.16"/><circle class="cls-5" cx="281.6" cy="262.03" r="4.16"/><circle class="cls-5" cx="340.92" cy="321.2" r="4.16"/><circle class="cls-5" cx="341.01" cy="263.7" r="4.16"/><circle class="cls-5" cx="385.55" cy="212.6" r="4.16"/><circle class="cls-5" cx="385.97" cy="410.7" r="4.16"/><circle class="cls-5" cx="341.28" cy="411.55" r="4.16"/><circle class="cls-5" cx="365.91" cy="411.23" r="4.16"/><circle class="cls-5" cx="341.76" cy="357.14" r="4.16"/><circle class="cls-5" cx="245.85" cy="388.56" r="4.16"/><circle class="cls-5" cx="246.11" cy="410.75" r="4.16"/><circle class="cls-5" cx="223.3" cy="379.75" r="4.16"/><circle class="cls-5" cx="192.17" cy="411.68" r="4.16"/><circle class="cls-5" cx="191.95" cy="311.1" r="4.16"/><circle class="cls-5" cx="191.95" cy="287.59" r="4.16"/><circle class="cls-5" cx="273.19" cy="287.59" r="4.16"/><circle class="cls-5" cx="246.78" cy="262.5" r="4.16"/><circle class="cls-5" cx="295.14" cy="213.43" r="4.16"/><circle class="cls-5" cx="183.98" cy="214.15" r="4.16"/><circle class="cls-5" cx="191.93" cy="236.05" r="4.16"/><circle class="cls-5" cx="168.14" cy="213.65" r="4.16"/><circle class="cls-5" cx="142.67" cy="214.23" r="4.16"/><circle class="cls-5" cx="167.5" cy="389.35" r="4.16"/><circle class="cls-5" cx="142.77" cy="411.21" r="4.16"/><circle class="cls-5" cx="174.81" cy="410.65" r="4.16"/><circle class="cls-5" cx="299.3" cy="314.26" r="4.16"/><circle class="cls-5" cx="316.94" cy="333.13" r="4.16"/><circle class="cls-5" cx="222.58" cy="411.19" r="4.16"/><circle class="cls-5" cx="365.78" cy="263.7" r="4.16"/></g></g></svg>