<?xml version="1.0" encoding="utf-8"?>
<!-- Generator: Adobe Illustrator 24.1.0, SVG Export Plug-In . SVG Version: 6.00 Build 0)  -->
<svg version="1.1" id="Capa_1" xmlns="http://www.w3.org/2000/svg" xmlns:xlink="http://www.w3.org/1999/xlink" x="0px" y="0px"
	 viewBox="0 0 93.1 90.2" style="enable-background:new 0 0 93.1 90.2;" xml:space="preserve">
<style type="text/css">
	.st0{fill:#FF0000;}
</style>
<path class="st0" d="M16.8,83.1h54c5,0,9-4,9-9v-24c0-1.7-1.3-3-3-3s-3,1.3-3,3v24c0,1.7-1.3,3-3,3h-54c-1.7,0-3-1.3-3-3v-54
	c0-1.7,1.3-3,3-3h24c1.7,0,3-1.3,3-3s-1.3-3-3-3h-24c-5,0-9,4-9,9v54C7.8,79.1,11.9,83.1,16.8,83.1z"/>
<path class="st0" d="M58.8,5.1c-1.7,0-3,1.3-3,3s1.3,3,3,3h16.8L50.7,36c-1.2,1.2-1.2,3.1,0,4.2c0.6,0.6,1.4,0.9,2.1,0.9
	s1.5-0.3,2.1-0.9l24.9-24.9v16.8c0,1.7,1.3,3,3,3s3-1.3,3-3v-27H58.8z"/>
</svg>
