<?xml version="1.0" encoding="utf-8"?>
<!-- Generator: Adobe Illustrator 24.1.0, SVG Export Plug-In . SVG Version: 6.00 Build 0)  -->
<svg version="1.1" id="Capa_1" xmlns="http://www.w3.org/2000/svg" xmlns:xlink="http://www.w3.org/1999/xlink" x="0px" y="0px"
	 viewBox="0 0 442 405.7" style="enable-background:new 0 0 442 405.7;" xml:space="preserve">
<style type="text/css">
	.st0{fill:#E6D7B7;}
</style>
<g>
	<g>
		<path class="st0" d="M236.2,400.8c-51.8,0-100.6-19.8-137.7-55.9c-0.2-0.2-3.2-3.3-3.4-3.5l14.4-4.1c0.9,0.9-0.7-0.6,0.2,0.2
			c34.3,32.4,79.1,50.3,126.5,50.3c49.2,0,95.5-19.2,130.3-54c34.8-34.8,54-81.1,54-130.3s-19.2-95.5-54-130.3
			c-34.8-34.8-81.1-54-130.3-54s-95.5,19.2-130.3,54c-34.8,34.8-54,81.1-54,130.3c0,21.6,3.7,42.8,11,63
			c7.1,19.4,17.3,37.4,30.4,53.4c0,0.1,2,2.5,2,2.5l-12.6,5.2c-0.4-0.5-0.2-0.2-0.6-0.7c-13.6-16.9-24.2-35.7-31.5-56
			c-7.8-21.6-11.8-44.3-11.8-67.4c0-26.6,5.2-52.5,15.5-76.8c9.9-23.5,24.2-44.6,42.3-62.7c18.1-18.1,39.2-32.4,62.7-42.3
			C183.7,11.2,209.6,6,236.2,6s52.5,5.2,76.8,15.5c23.5,9.9,44.6,24.2,62.7,42.3c18.1,18.1,32.4,39.2,42.3,62.7
			c10.3,24.3,15.5,50.2,15.5,76.8s-5.2,52.5-15.5,76.8c-9.9,23.5-24.2,44.6-42.3,62.7c-18.1,18.1-39.2,32.4-62.7,42.3
			C288.7,395.6,262.9,400.8,236.2,400.8z"/>
		<g>
			<g>
				<path class="st0" d="M182.8,341.3l-8.1-3.5l10.4-24.3l8.1,3.5c5,2.2,6.3,6.6,4.6,10.6l-4.3,10
					C191.7,341.7,187.8,343.5,182.8,341.3z M192.5,325.5c0.8-1.9,0.4-3.5-1.6-4.3l-2.5-1.1l-6.7,15.6l2.5,1.1c2,0.9,3.4,0.1,4.2-1.8
					L192.5,325.5z"/>
				<path class="st0" d="M213.8,350.4l2.7-26.3l14.6,1.5l-0.5,4.7l-9-0.9l-0.6,5.8l6.2,0.6l-0.4,4.3l-6.2-0.6l-0.7,6.6l9,0.9
					l-0.5,4.9L213.8,350.4z"/>
				<path class="st0" d="M259.9,349.9c-5.1,1-8.9-1.3-9.8-5.7l-0.3-1.3l5.1-1l0.2,0.9c0.4,2.2,1.8,3.1,3.8,2.7
					c2-0.4,2.7-1.7,2.4-3.5c-0.4-1.9-2.1-2.7-5.4-3.7c-3.4-1.1-7.2-2.4-8-6.4c-0.8-4,1.3-8.1,6.6-9.2c4.7-0.9,8.5,1.6,9.3,5.7
					l0.2,1.1l-5,1l-0.2-0.8c-0.3-1.7-1.6-2.9-3.5-2.5c-1.6,0.3-2.5,1.5-2.2,3.1c0.4,1.8,2,2.5,5.7,3.6c4,1.3,6.9,2.8,7.7,6.5
					C267.4,344.6,265.1,348.9,259.9,349.9z"/>
				<path class="st0" d="M289.4,339.5l-11.7-23.7l5.1-2.5l11.7,23.7L289.4,339.5z"/>
				<path class="st0" d="M325,315.1l-2.1-1.3c0.5,2.2-0.3,4.4-2.2,6.1c-3.9,3.5-8.3,2.5-11-0.5l-8.2-9.3c-2.6-2.9-2.7-7.8,1.5-11.5
					c4.2-3.7,8.7-3,11.4,0.1l1.3,1.5l-4.1,3.6l-1.4-1.6c-1-1.1-2.5-1.5-4-0.1c-1.5,1.4-1.4,3-0.4,4.1l8.3,9.4
					c0.9,1.1,2.7,1.4,4.2,0.1c1.6-1.4,1.4-3.1,0.5-4.2l-1.8-2l-2.3,2.1l-2.6-2.9l6.3-5.6l9,10.1L325,315.1z"/>
				<path class="st0" d="M349.3,282.8l-12.1-0.3l-4.9-0.2l12.9,7.5l-2.6,4.5L319.8,281l2.4-4.1l12.2,0.5l4.8,0.3l-13.1-7.6l2.6-4.4
					l22.8,13.3L349.3,282.8z"/>
			</g>
			<g>
				<path class="st0" d="M141.8,125l-1.3,1.8l-17.6-13.1l4-5.4c1.3-1.8,2.8-2.9,4.3-3.4c1.6-0.5,3.1-0.1,4.7,1.1
					c1.2,0.9,2,2.1,2.2,3.5c0.3,1.4-0.1,2.9-1,4.4l12.2,1.1l-1.6,2.2l-11.8-1.3l-2.2,3L141.8,125z M131.9,117.7l2.4-3.2
					c0.6-0.8,1-1.5,1.3-2.2c0.2-0.7,0.4-1.3,0.3-1.8c0-0.5-0.2-1-0.4-1.4c-0.3-0.4-0.6-0.8-1-1.1c-0.4-0.3-0.9-0.5-1.4-0.7
					c-0.5-0.1-1-0.1-1.5,0c-0.5,0.1-1.1,0.4-1.7,0.8c-0.6,0.4-1.2,1.1-1.7,1.9l-2.4,3.2L131.9,117.7z"/>
				<path class="st0" d="M161.4,103.3l-1.7,1.5l-14.5-16.6l1.7-1.5L161.4,103.3z"/>
				<path class="st0" d="M188.9,81.6c-0.1,0.7-0.2,1.4-0.5,2c-0.2,0.7-0.6,1.4-1,2c-0.4,0.7-1,1.3-1.6,1.8c-0.6,0.6-1.3,1.1-2.1,1.5
					c-1.4,0.8-2.9,1.2-4.4,1.4c-1.5,0.1-3,0-4.3-0.4c-1.4-0.4-2.7-1.1-3.8-2.1c-1.2-1-2.2-2.2-3-3.7c-0.8-1.5-1.3-3-1.4-4.5
					c-0.2-1.5,0-3,0.4-4.4c0.4-1.4,1.1-2.7,2.1-3.8c1-1.2,2.2-2.1,3.6-2.9c1.2-0.6,2.5-1.1,4-1.2c1.5-0.2,2.9,0.1,4.4,0.7l-1,2.2
					c-0.4-0.2-0.8-0.4-1.3-0.5c-0.5-0.1-1.1-0.2-1.6-0.2s-1.2,0.1-1.7,0.2c-0.6,0.1-1.1,0.3-1.7,0.6c-1.2,0.7-2.2,1.5-3,2.5
					c-0.7,1-1.2,2-1.5,3.2c-0.3,1.1-0.3,2.3-0.1,3.5c0.2,1.2,0.6,2.4,1.2,3.5c0.6,1.1,1.4,2.1,2.3,2.9c0.9,0.8,1.9,1.4,3,1.8
					c1.1,0.4,2.3,0.6,3.5,0.5c1.2-0.1,2.5-0.4,3.7-1.1c0.5-0.3,1-0.6,1.4-1c0.5-0.4,0.9-0.8,1.2-1.3c0.4-0.5,0.7-1,0.9-1.6
					c0.2-0.6,0.4-1.3,0.4-2L188.9,81.6z"/>
				<path class="st0" d="M199.3,58.6l2.2-0.5l2,9.3l11.7-2.5l-2-9.3l2.2-0.5l4.5,21.5l-2.2,0.5L215.6,67l-11.7,2.5l2.1,10.2
					l-2.2,0.5L199.3,58.6z"/>
				<path class="st0" d="M236,75.7l-2.6-0.2l11.5-21l2.2,0.2l7.6,22.8l-2.6-0.2l-1.9-6l-11.2-1L236,75.7z M240,68.2l9.5,0.9
					l-3.7-11.9L240,68.2z"/>
				<path class="st0" d="M270,81.5l-2.1-0.8l7.5-20.7l6.4,2.3c2.1,0.8,3.6,1.8,4.5,3.2c0.9,1.4,1,3,0.3,4.8
					c-0.5,1.4-1.4,2.5-2.7,3.1c-1.3,0.7-2.8,0.8-4.5,0.3l2.4,12l-2.6-0.9L277,73.1l-3.5-1.3L270,81.5z M274.2,69.9l3.7,1.4
					c0.9,0.3,1.8,0.5,2.5,0.6c0.7,0,1.3,0,1.8-0.2c0.5-0.2,0.9-0.5,1.3-0.8c0.3-0.4,0.6-0.8,0.8-1.3c0.2-0.5,0.3-1,0.2-1.5
					c0-0.5-0.2-1-0.4-1.5c-0.3-0.5-0.7-0.9-1.3-1.3c-0.6-0.4-1.3-0.8-2.3-1.1l-3.7-1.4L274.2,69.9z"/>
				<path class="st0" d="M307,74.4l5.9,4.3c1.1,0.8,2.1,1.8,2.9,3c0.9,1.2,1.5,2.5,1.8,3.9c0.4,1.4,0.4,2.9,0.2,4.4
					c-0.3,1.5-0.9,3-2,4.5c-1.1,1.5-2.3,2.6-3.6,3.3c-1.4,0.7-2.7,1.1-4.2,1.2c-1.4,0.1-2.8-0.1-4.2-0.5c-1.4-0.4-2.6-1.1-3.7-1.9
					l-5.9-4.3L307,74.4z M297.2,91.9l3.5,2.5c1.4,1,2.7,1.6,4,1.9c1.3,0.3,2.5,0.4,3.7,0.2c1.2-0.2,2.2-0.6,3.1-1.3
					c0.9-0.6,1.7-1.4,2.4-2.3c0.7-0.9,1.2-1.9,1.5-3s0.4-2.2,0.2-3.4c-0.2-1.2-0.6-2.3-1.3-3.4c-0.7-1.1-1.7-2.2-3.1-3.2l-3.5-2.5
					L297.2,91.9z"/>
				<path class="st0" d="M337.1,100.2l4.1,5.1c0.6,0.7,1,1.5,1.4,2.2c0.4,0.8,0.6,1.6,0.7,2.4c0.1,0.8-0.1,1.6-0.4,2.3
					c-0.3,0.7-0.9,1.4-1.7,2.1c-0.9,0.7-2,1.1-3.1,1.1c-1.1,0-2.1-0.4-3.1-1.2l0,0c0.9,1.3,1.2,2.6,1,3.9c-0.2,1.3-1,2.4-2.2,3.4
					c-0.3,0.2-0.7,0.5-1.4,0.8c-0.6,0.3-1.4,0.4-2.3,0.4c-0.9,0-1.8-0.3-2.9-0.8c-1-0.5-2.1-1.5-3.2-2.9l-4.2-5.3L337.1,100.2z
					 M322.9,114.3l2.7,3.4c0.5,0.6,1,1.2,1.6,1.6s1.1,0.8,1.7,1c0.6,0.2,1.2,0.3,1.8,0.2c0.6-0.1,1.2-0.4,1.7-0.8
					c1.1-0.9,1.7-1.9,1.7-3.1c0-1.2-0.6-2.5-1.7-3.9l-2.8-3.6L322.9,114.3z M331,107.9l2.8,3.5c0.3,0.4,0.7,0.8,1.2,1.1
					c0.4,0.3,0.9,0.6,1.4,0.7c0.5,0.1,1,0.2,1.6,0.1c0.5-0.1,1.1-0.4,1.7-0.8c0.2-0.1,0.4-0.4,0.7-0.7c0.3-0.3,0.5-0.7,0.6-1.3
					c0.1-0.5,0.1-1.1,0-1.8c-0.1-0.7-0.6-1.4-1.2-2.3l-2.7-3.4L331,107.9z"/>
				<path class="st0" d="M339.3,139.8l4.2,9.4l-1.9,0.8l-5.1-11.4l20.1-9l0.9,2L339.3,139.8z"/>
				<path class="st0" d="M345.9,164.2l-0.4-2.6l23.2,6.1l0.3,2.1l-20.3,12.8l-0.4-2.6l5.3-3.3l-1.7-11.1L345.9,164.2z M354.1,166.2
					l1.4,9.4l10.7-6.4L354.1,166.2z"/>
				<path class="st0" d="M349.8,213.8c-0.5-0.4-1-1-1.4-1.6c-0.4-0.6-0.8-1.3-1.1-2c-0.3-0.7-0.5-1.5-0.6-2.4s-0.1-1.7,0-2.6
					c0.2-1.6,0.7-3.1,1.4-4.4c0.7-1.3,1.7-2.4,2.8-3.3c1.1-0.9,2.4-1.5,3.9-1.9s3-0.5,4.7-0.3c1.7,0.2,3.2,0.7,4.5,1.4
					c1.3,0.7,2.4,1.7,3.3,2.8c0.9,1.1,1.5,2.4,1.9,3.9c0.4,1.5,0.5,3,0.3,4.6c-0.2,1.4-0.6,2.7-1.3,4c-0.7,1.3-1.7,2.3-3.1,3.2
					l-1.2-2.1c0.4-0.2,0.8-0.4,1.2-0.8c0.4-0.3,0.8-0.8,1.1-1.2c0.3-0.5,0.6-1,0.8-1.5c0.2-0.6,0.4-1.1,0.5-1.7
					c0.2-1.4,0.1-2.7-0.3-3.9c-0.4-1.2-0.9-2.2-1.7-3.1c-0.8-0.9-1.7-1.6-2.8-2.1c-1.1-0.6-2.3-0.9-3.5-1.1
					c-1.3-0.2-2.5-0.1-3.7,0.2c-1.2,0.3-2.3,0.7-3.2,1.4c-1,0.7-1.8,1.5-2.4,2.6c-0.6,1-1.1,2.3-1.2,3.7c-0.1,0.6-0.1,1.2-0.1,1.7
					c0,0.6,0.1,1.2,0.3,1.7c0.2,0.6,0.5,1.1,0.8,1.7c0.4,0.5,0.8,1,1.4,1.5L349.8,213.8z"/>
				<path class="st0" d="M353,233.6L353,233.6l-0.1,0.3l4.8,13.2l-1.2,3l-4.9-14.1l-15.6,6.2l1.3-3l14.6-5.6l0.1-0.3l0,0l-10.5-4.4
					l0.9-2.1l20.3,8.5l-0.9,2.1L353,233.6z"/>
			</g>
			<g>
				<g>
					<path class="st0" d="M262.1,294H224V108.7h37.8c15.9,0,30,8.3,30,32.5v33.7c0,12-4.2,20.6-14.5,24.5
						c10.6,4.4,14.7,13.1,14.7,24.8v37.3C292.1,285.9,277.6,294,262.1,294z M268.2,141.8c0-7.2-2.8-10.6-8.1-10.6h-11.7V190H259
						c5.8,0,9.2-3.6,9.2-11.1V141.8z M268.5,221.7c0-7.2-3.6-11.4-9.2-11.4h-10.8v61.2h12c5.3,0,8.1-3.3,8.1-10.6V221.7z"/>
				</g>
				<g>
					<path class="st0" d="M210.8,108.9c-15.8,0-30.6,8.6-30.6,32.8v38.9c0,11.1,4.6,19.7,12.9,25.6c1.1,0.8,2,1.4,2.7,1.8
						c-0.1,0.2-0.2,0.3-0.2,0.5c-4.8,8.4-11.3,18.9-19.7,31.5c-8.3,12.6-17.7,26-28.2,40.1c-5.5,7.2-11.6,14.1-18.4,20.8
						c-6.8,6.7-14.1,12.6-22,17.6c-7.8,5.1-16.2,9.1-25.1,12.1c-8.9,3-18.1,4.4-27.6,4.3c-14.6-0.3-28.9-4.3-43.1-12
						c-1.5-1-2.2-0.8-2.2,0.7c0,1,0.5,1.6,1.4,1.8c7.7,4.3,15.8,7.7,24.2,10.4c8.4,2.7,17.5,4.1,27.2,4.3c13.8,0.3,26-1,36.5-3.6
						c10.5-2.6,20.1-6.8,29-12.4c8.8-5.7,17.9-11,28.6-19.9c9.3-7.8,19.8-21.3,28.5-34.2c2.5-3.8,5.5-8.6,9-14.2
						c3.5-5.6,7.1-11.5,10.9-17.5c3.7-6,7.3-11.8,10.7-17.5c1.3-2.2,2.5-4.2,3.6-6h4.9v79.3h24.5V108.9H210.8z M223.9,193.8h-10.6
						c-5.8,0-8.9-3.6-8.9-11.4V142c0-7.2,2.5-10.6,7.8-10.6h11.7V193.8z"/>
				</g>
			</g>
		</g>
	</g>
	<path class="st0" d="M128.5,268.3c-14.5-21.2-22.1-45.9-22.1-71.7c0-20.5,5-40.9,14.4-58.9l4,2.1c-9.1,17.4-13.9,37-13.9,56.8
		c0,24.8,7.4,48.7,21.3,69.1L128.5,268.3z"/>
</g>
</svg>
