<svg xmlns="http://www.w3.org/2000/svg" viewBox="0 0 484.01 405.71"><defs><style>.cls-1{fill:#e8dbc1;}</style></defs><g id="Capa_2" data-name="Capa 2"><g id="Capa_1-2" data-name="Capa 1"><path class="cls-1" d="M229.6,391.31l-11-4.74,14.24-33.08,11,4.75c6.85,2.95,8.63,8.95,6.25,14.46l-5.85,13.61C241.84,391.87,236.46,394.26,229.6,391.31Zm13.33-21.52c1.13-2.63.55-4.7-2.18-5.88l-3.38-1.45-9.15,21.25,3.38,1.46c2.73,1.17,4.64.17,5.77-2.46Z"/><path class="cls-1" d="M271.9,403.68l3.63-35.82,20,2-.65,6.46-12.26-1.24-.8,7.85,8.44.85-.59,5.81-8.44-.85-.91,9L292.53,399l-.68,6.73Z"/><path class="cls-1" d="M334.8,403c-6.95,1.39-12.14-1.71-13.35-7.75l-.36-1.81,7-1.38.23,1.16c.59,3,2.4,4.27,5.15,3.72s3.72-2.34,3.24-4.78-2.83-3.68-7.34-5c-4.7-1.43-9.76-3.34-10.84-8.75s1.82-11.06,9-12.5c6.46-1.29,11.63,2.2,12.75,7.82l.28,1.43-6.84,1.37-.22-1.12c-.47-2.38-2.17-4-4.82-3.44a3.42,3.42,0,0,0-3,4.23c.5,2.49,2.79,3.47,7.76,4.9,5.47,1.72,9.47,3.78,10.49,8.93C345.1,395.77,341.85,401.6,334.8,403Z"/><path class="cls-1" d="M375.11,388.86l-16-32.27,6.93-3.44,16,32.27Z"/><path class="cls-1" d="M423.58,355.58l-2.92-1.83c.74,3-.44,6-3,8.29-5.34,4.74-11.31,3.46-15-.71l-11.19-12.62c-3.55-4-3.73-10.64,2-15.73s11.85-4.08,15.58.12l1.8,2-5.59,4.95-1.93-2.19c-1.33-1.49-3.37-2-5.51-.09s-1.9,4.13-.57,5.63l11.34,12.78a3.88,3.88,0,0,0,5.7.07c2.15-1.9,1.94-4.25.65-5.7l-2.48-2.79-3.15,2.8-3.52-4,8.66-7.68,12.27,13.84Z"/><path class="cls-1" d="M456.82,311.5l-16.48-.37-6.64-.3L451.28,321l-3.56,6.13-31.13-18.09,3.23-5.56,16.64.73,6.57.43-17.86-10.37,3.5-6,31.14,18.08Z"/><path class="cls-1" d="M157.64,259.69l-26.3,2.53-2.19-4.11L155.62,244l1.44,2.69-22.89,12.19,0,.07,28-2.61.75,1.42-17.79,21.76.05.08,22.88-12.19,1.44,2.69-26.48,14.1-2.19-4.11Z"/><path class="cls-1" d="M145.77,220.5l-3.11-15.76,2.75-.54,3.7,18.75-29.44,5.8-3.6-18.25,2.75-.54,3,15.26,10-2L129,209l2.75-.54,2.81,14.26Z"/><path class="cls-1" d="M141.68,181.25l.87-16,2.79.16-1,19.08-30-1.64,1-18.57,2.79.15-.84,15.53,10.19.55.8-14.51,2.79.16-.79,14.51Z"/><path class="cls-1" d="M152.45,135.55l-.93,2.9-25.89-8.36-3.09,9.56-2.66-.86,7.11-22,2.66.86-3.08,9.56Z"/><path class="cls-1" d="M165.62,106.39,164,109,138.66,92.87l5-7.79a11.71,11.71,0,0,1,5.56-5,7,7,0,0,1,6.49,1,7.49,7.49,0,0,1,3.4,4.49,8.47,8.47,0,0,1-1,6.14l16.65.34-2,3.14-16.18-.53-2.72,4.29Zm-14.13-9,2.91-4.58a12.37,12.37,0,0,0,1.49-3.14,6.4,6.4,0,0,0,.27-2.51,4.13,4.13,0,0,0-.74-1.93,5.49,5.49,0,0,0-1.53-1.42,5.38,5.38,0,0,0-1.9-.76,4.32,4.32,0,0,0-2.07.14,6,6,0,0,0-2.16,1.31,13,13,0,0,0-2.2,2.7l-2.9,4.58Z"/><path class="cls-1" d="M190.09,75,188,77.14,166.58,56.08l2.15-2.17Z"/><path class="cls-1" d="M225.41,42.61a11.51,11.51,0,0,1-.43,2.83,11.68,11.68,0,0,1-1.22,2.86,14.7,14.7,0,0,1-2,2.66A14.33,14.33,0,0,1,219,53.21a15.86,15.86,0,0,1-5.88,2.33A14.86,14.86,0,0,1,201.74,53,17.41,17.41,0,0,1,195,42.34a14.9,14.9,0,0,1,2.52-11.4,16.09,16.09,0,0,1,4.61-4.33,15.13,15.13,0,0,1,5.3-2.07,11.37,11.37,0,0,1,6,.5l-1.18,3.12a7.36,7.36,0,0,0-1.85-.54,9.74,9.74,0,0,0-2.24-.08,11.56,11.56,0,0,0-2.35.44,8.82,8.82,0,0,0-2.18,1,12,12,0,0,0-3.8,3.67A11.7,11.7,0,0,0,198,37.11a12.56,12.56,0,0,0,.16,4.8,14.58,14.58,0,0,0,1.94,4.62,14.38,14.38,0,0,0,3.36,3.71,12.63,12.63,0,0,0,4.27,2.18,11.85,11.85,0,0,0,4.8.31,12.16,12.16,0,0,0,4.93-1.88,12.41,12.41,0,0,0,1.87-1.44,9.45,9.45,0,0,0,1.54-1.83,8.77,8.77,0,0,0,1.05-2.3,10.29,10.29,0,0,0,.39-2.83Z"/><path class="cls-1" d="M237.16,10.3l2.93-.84L243.68,22l15.72-4.52-3.6-12.5,2.93-.85L267,32.92l-2.93.84-3.92-13.64-15.72,4.53,3.92,13.64-2.93.84Z"/><path class="cls-1" d="M288.84,29.84l-3.56-.06L298.81,0l3,.05,12.56,30.21-3.56-.06-3.17-7.94L292.27,22Zm4.62-10.6,13,.21L300.24,3.58Z"/><path class="cls-1" d="M335.66,34.28l-2.94-.83,8.11-28.88,8.89,2.5a11.74,11.74,0,0,1,6.42,3.87,7,7,0,0,1,.92,6.51A7.47,7.47,0,0,1,353.74,22a8.48,8.48,0,0,1-6.16.85l4.48,16-3.59-1-4.15-15.64-4.89-1.37Zm4.52-16.11,5.22,1.46a12.34,12.34,0,0,0,3.44.53,6.61,6.61,0,0,0,2.49-.47A4.19,4.19,0,0,0,353,18.43a5.59,5.59,0,0,0,.92-1.88,5.45,5.45,0,0,0,.18-2,4.36,4.36,0,0,0-.73-1.94,6.17,6.17,0,0,0-1.88-1.7,13.25,13.25,0,0,0-3.22-1.32L343,8.09Z"/><path class="cls-1" d="M385.32,21l8.48,5.21a17.83,17.83,0,0,1,4.3,3.74A15.45,15.45,0,0,1,401,35a14.23,14.23,0,0,1,.66,5.92,14.42,14.42,0,0,1-2.24,6.31,14,14,0,0,1-10.2,6.94,15.58,15.58,0,0,1-5.81-.27,17.8,17.8,0,0,1-5.27-2.14l-8.48-5.22ZM373.67,45.72l5.06,3.1a15.5,15.5,0,0,0,5.61,2.24,12.36,12.36,0,0,0,5-.15,11,11,0,0,0,4.15-2,12.63,12.63,0,0,0,3.05-3.42,13.08,13.08,0,0,0,1.68-4.26,11.08,11.08,0,0,0-.07-4.62A12.47,12.47,0,0,0,396,32a15.75,15.75,0,0,0-4.53-4l-5.06-3.1Z"/><path class="cls-1" d="M428.85,53.06l6,6.59a17.33,17.33,0,0,1,2.15,2.91,9.28,9.28,0,0,1,1.15,3.14,6.57,6.57,0,0,1-.26,3.17,7.12,7.12,0,0,1-2.08,3,6.55,6.55,0,0,1-4,1.83,6.72,6.72,0,0,1-4.38-1.3l-.06.06a7.27,7.27,0,0,1,1.73,5.18,7.48,7.48,0,0,1-2.68,4.88,9,9,0,0,1-1.8,1.17,7.27,7.27,0,0,1-3.07.77,9.43,9.43,0,0,1-4-.82,13.65,13.65,0,0,1-4.65-3.56l-6.18-6.75Zm-18,20.63L414.81,78a13.33,13.33,0,0,0,2.34,2,7.55,7.55,0,0,0,2.46,1.14,5.09,5.09,0,0,0,2.42,0A4.93,4.93,0,0,0,424.32,80a5.15,5.15,0,0,0,2-4.38,9.16,9.16,0,0,0-2.71-5.09l-4.21-4.6Zm10.37-9.5,4.15,4.52a9.21,9.21,0,0,0,1.68,1.43,5.56,5.56,0,0,0,2,.82,4.94,4.94,0,0,0,2.16-.06,4.89,4.89,0,0,0,2.17-1.24,6.19,6.19,0,0,0,.84-1,4.29,4.29,0,0,0,.68-1.77,5.29,5.29,0,0,0-.23-2.4,7.92,7.92,0,0,0-1.86-2.95l-4-4.31Z"/><path class="cls-1" d="M435.84,106.7,442.5,119,440,120.33l-8.11-15,26.38-14.28,1.45,2.68Z"/><path class="cls-1" d="M447.22,139.17l-.8-3.46,32.16,6,.66,2.89L452.92,164l-.8-3.47,6.95-5-3.43-15Zm11.4,2,2.91,12.68L475.44,144Z"/><path class="cls-1" d="M457.46,206.25a11.73,11.73,0,0,1-2.07-2,11.91,11.91,0,0,1-1.63-2.65,14.59,14.59,0,0,1-1-3.16,14.35,14.35,0,0,1-.25-3.56,16.07,16.07,0,0,1,1.48-6.14,15,15,0,0,1,8.66-7.83,17.39,17.39,0,0,1,12.61.61,15,15,0,0,1,7.85,8.64,16,16,0,0,1,.88,6.26,15,15,0,0,1-1.37,5.53,11.22,11.22,0,0,1-3.87,4.6l-1.86-2.76a7.44,7.44,0,0,0,1.5-1.2,9.09,9.09,0,0,0,1.36-1.78,11.72,11.72,0,0,0,1-2.18,8.8,8.8,0,0,0,.45-2.35,12.19,12.19,0,0,0-.81-5.21,11.81,11.81,0,0,0-2.64-4,12.63,12.63,0,0,0-4-2.63,14.63,14.63,0,0,0-4.89-1.09,14.48,14.48,0,0,0-5,.61,12.61,12.61,0,0,0-4.25,2.23,11.83,11.83,0,0,0-3,3.74,12.1,12.1,0,0,0-1.31,5.11,12.44,12.44,0,0,0,.1,2.36,9.36,9.36,0,0,0,.61,2.32,8.49,8.49,0,0,0,1.27,2.18,10.12,10.12,0,0,0,2.09,2Z"/><path class="cls-1" d="M463.78,232.88l0,0-.12.37,7.88,17.49-1.38,4.14L462,236.27l-20.61,10,1.42-4.27,19.34-9.1.14-.44,0,0-14.67-4.89,1-2.89,28.46,9.48-1,2.9Z"/><path class="cls-1" d="M344.71,324.48h-52V71.81h51.6c21.62,0,41,11.38,41,44.39v45.91c0,16.31-5.69,28.07-19.72,33.38,14.41,6.07,20.1,17.83,20.1,33.77V280.1C385.68,313.48,366,324.48,344.71,324.48ZM353.06,117c0-9.87-3.8-14.42-11-14.42H326.12v80.05h14.42c8,0,12.52-4.93,12.52-15.17Zm.38,108.88c0-9.86-4.94-15.55-12.52-15.55h-14.8v83.47h16.31c7.21,0,11-4.56,11-14.42Z"/><path class="cls-1" d="M274.75,72.07c-21.61,0-41.73,11.76-41.73,44.78V170c0,15.17,6.25,26.88,17.55,34.85,1.57,1.11,2.76,1.88,3.69,2.44-.11.21-.22.45-.32.69q-9.74,17.19-26.83,43t-38.42,54.68A262.51,262.51,0,0,1,163.63,334,186.2,186.2,0,0,1,133.68,358a152.18,152.18,0,0,1-34.29,16.55,110.8,110.8,0,0,1-37.58,5.8Q32,379.84,3,364c-2-1.35-3-1.06-3,.92a2.37,2.37,0,0,0,2,2.52,179.25,179.25,0,0,0,33,14.22,128.07,128.07,0,0,0,37.13,5.85q28.29.52,49.73-4.84a131.13,131.13,0,0,0,39.52-16.95c12-7.73,24.47-15,39-27.14,12.74-10.6,27-29,38.93-46.67q5.09-7.86,12.26-19.41t14.8-23.83c5.09-8.16,10-16.13,14.54-23.81,1.75-2.94,3.42-5.67,5-8.21h6.72V324.74H326V72.07ZM292.6,187.8H278.17c-8,0-12.13-5-12.13-15.57v-55c0-9.87,3.42-14.43,10.62-14.43H292.6Z"/></g></g></svg>