<svg xmlns="http://www.w3.org/2000/svg" viewBox="0 0 178.35 179.74"><defs><style>.cls-1{fill:#f1f2f2;fill-rule:evenodd;}</style></defs><g id="Capa_2" data-name="Capa 2"><g id="Layer_1" data-name="Layer 1"><path class="cls-1" d="M90.79,0a87.58,87.58,0,0,0-75,132.77L0,179.74l48.47-15.52A87.56,87.56,0,1,0,90.79,0Zm0,160.44a72.49,72.49,0,0,1-40.1-12.05l-28,9,9.11-27.07a72.86,72.86,0,1,1,59,30.15Zm41.05-53c-2.19-1.2-13-7-15-7.84s-3.5-1.25-5.08.93-6,7-7.4,8.49-2.67,1.58-4.87.38A61,61,0,0,1,82,97.64,67.25,67.25,0,0,1,70.1,81.7c-1.23-2.28,0-3.45,1.15-4.52s2.33-2.53,3.5-3.79a15.38,15.38,0,0,0,2.37-3.64,4.11,4.11,0,0,0,0-3.92c-.52-1.14-4.57-12.31-6.27-16.85s-3.58-3.87-4.89-3.92-2.78-.29-4.27-.35a8.26,8.26,0,0,0-6.07,2.58c-2.13,2.16-8.11,7.34-8.52,18.34s7.2,21.93,8.26,23.46,14.53,25.37,36.91,35.17,22.51,6.81,26.61,6.59,13.43-4.91,15.49-10.06,2.22-9.62,1.7-10.57S134,108.65,131.84,107.45Z"/></g></g></svg>