<?xml version="1.0" encoding="utf-8"?>
<!-- Generator: Adobe Illustrator 26.2.1, SVG Export Plug-In . SVG Version: 6.00 Build 0)  -->
<svg version="1.1" id="Capa_1" xmlns="http://www.w3.org/2000/svg" xmlns:xlink="http://www.w3.org/1999/xlink" x="0px" y="0px"
	 viewBox="0 0 540.9 540.9" style="enable-background:new 0 0 540.9 540.9;" xml:space="preserve">
<style type="text/css">
	.st0{opacity:0.3;}
	.st1{fill:none;stroke:#878787;stroke-width:0.5;stroke-miterlimit:10;stroke-dasharray:2;}
	.st2{fill:none;stroke:#878787;stroke-width:0.25;stroke-miterlimit:10;stroke-dasharray:2;}
	.st3{fill:none;stroke:#878787;stroke-width:0.15;stroke-miterlimit:10;stroke-dasharray:2;}
	.st4{fill:none;stroke:#878787;stroke-width:9.000000e-02;stroke-miterlimit:10;stroke-dasharray:2;}
	.st5{fill:none;stroke:#878787;stroke-width:0.75;stroke-miterlimit:10;stroke-dasharray:2;}
	.st6{fill:none;stroke:#878787;stroke-miterlimit:10;stroke-dasharray:2;}
</style>
<g id="Capa_2_00000095315798910129794060000008273148112946854280_" class="st0">
	<g id="IMG_Y_FONDO">
		<g>
			<path class="st1" d="M270.4,43.9c125.1,0,226.5,101.4,226.5,226.5c-12,300.5-441.1,300.4-453,0C43.9,145.4,145.4,43.9,270.4,43.9
				L270.4,43.9z"/>
		</g>
		<g>
			<path class="st2" d="M270.4,62.4c114.9,0,208,93.2,208,208c-11,275.9-405.1,275.8-416.1,0C62.4,155.6,155.6,62.4,270.4,62.4
				L270.4,62.4z"/>
		</g>
		<g>
			<path class="st3" d="M270.4,78.8c105.8,0,191.7,85.7,191.7,191.7c-10.1,254.2-373.3,254.1-383.2,0
				C78.8,164.6,164.6,78.8,270.4,78.8L270.4,78.8z"/>
		</g>
		<g>
			<path class="st4" d="M270.4,96.8c95.8,0,173.6,77.7,173.6,173.6c-9.1,230.3-338.1,230.2-347.2,0
				C96.8,174.6,174.6,96.8,270.4,96.8L270.4,96.8z"/>
		</g>
		<g>
			<path class="st5" d="M270.4,23.9c136.1,0,246.5,110.4,246.5,246.5c-13,326.9-480,326.9-492.9,0C23.9,134.3,134.3,23.9,270.4,23.9
				L270.4,23.9z"/>
		</g>
		<g>
			<path class="st6" d="M270.4,3.5c147.5,0,266.9,119.6,266.9,266.9c-14,354.2-519.9,354.1-534,0C3.5,123,123,3.5,270.4,3.5
				L270.4,3.5z"/>
		</g>
	</g>
</g>
</svg>
