<svg xmlns="http://www.w3.org/2000/svg" xmlns:xlink="http://www.w3.org/1999/xlink" viewBox="0 0 97.63 168.49"><defs><style>.cls-1{fill:#d7d7d7;}.cls-2{fill:none;}.cls-3{fill:#999;}.cls-4{fill:#ccc;}.cls-5{fill:#8b8b8b;}.cls-6{stroke:#d7d7d7;}.cls-14,.cls-18,.cls-6,.cls-9{stroke-miterlimit:10;}.cls-14,.cls-6,.cls-9{stroke-width:3.2px;}.cls-7{clip-path:url(#clip-path);}.cls-8{clip-path:url(#clip-path-2);}.cls-9{stroke:#999;}.cls-10{clip-path:url(#clip-path-3);}.cls-11{clip-path:url(#clip-path-4);}.cls-12{clip-path:url(#clip-path-5);}.cls-13{clip-path:url(#clip-path-6);}.cls-14{stroke:#8b8b8b;}.cls-15{clip-path:url(#clip-path-7);}.cls-16{clip-path:url(#clip-path-8);}.cls-17{clip-path:url(#clip-path-9);}.cls-18{stroke:#1a1a1a;stroke-width:3.28px;}.cls-19,.cls-21{fill:#e6e6e6;}.cls-19{fill-rule:evenodd;}.cls-20{clip-path:url(#clip-path-10);}.cls-22{clip-path:url(#clip-path-12);}</style><clipPath id="clip-path"><polygon class="cls-1" points="70.75 13.12 73.12 13.12 73.12 23.77 78.47 23.77 78.47 25.7 70.75 25.7 70.75 13.12"/></clipPath><clipPath id="clip-path-2"><path class="cls-1" d="M82.31,18.34h-.08l-.08-1.73H80.09c.06.82.08,1.7.08,2.93V25.7h2.37V21a3.75,3.75,0,0,1,.08-.71,2.07,2.07,0,0,1,2.12-1.73,2.75,2.75,0,0,1,.7.08V16.46a2.49,2.49,0,0,0-.57-.06,2.79,2.79,0,0,0-2.56,1.94"/></clipPath><clipPath id="clip-path-3"><rect class="cls-2" x="10.65" y="100.58" width="9.76" height="14.15"/></clipPath><clipPath id="clip-path-4"><path class="cls-3" d="M25.57,110.17v-.36h.11c.14,0,.22.06.22.18s-.09.19-.23.19h-.1m-.2-.49v1h.2v-.39h.1a.47.47,0,0,0,.34-.11.31.31,0,0,0,.09-.24.28.28,0,0,0-.11-.23.5.5,0,0,0-.31-.08l-.31,0"/></clipPath><clipPath id="clip-path-5"><rect class="cls-2" x="20.71" y="104.35" width="7.46" height="10.61"/></clipPath><clipPath id="clip-path-6"><path class="cls-4" d="M21,107.25c0,1.19.84,2.28,2.89,3,1.29.44,1.72.79,1.72,1.48s-.51,1.13-1.68,1.13a6.17,6.17,0,0,1-2.7-.73l-.51,1.85a6.93,6.93,0,0,0,3.19.73c2.78,0,4.27-1.35,4.27-3.19,0-1.5-.91-2.43-2.8-3.1-1.34-.46-1.84-.77-1.84-1.42s.52-1.06,1.47-1.06a4.82,4.82,0,0,1,2.22.58l.52-1.81a6.4,6.4,0,0,0-2.78-.61c-2.44,0-4,1.4-4,3.19"/></clipPath><clipPath id="clip-path-7"><rect class="cls-2" x="11.49" y="48.35" width="12.16" height="13.4"/></clipPath><clipPath id="clip-path-8"><path class="cls-5" d="M16.77,52.53c.24-.79.45-1.73.66-2.5h0c.2.77.43,1.69.69,2.5l1.09,3.3H15.7Zm-.85-4.45L11.49,61.47H14.1l1.19-3.79h4.39l1.26,3.79h2.71l-4.5-13.39Z"/></clipPath><clipPath id="clip-path-9"><path class="cls-5" d="M24.64,61.47h2.54V51.8H24.64Zm-.15-12.38a1.42,1.42,0,0,0,2.84,0,1.42,1.42,0,0,0-2.84,0"/></clipPath><clipPath id="clip-path-10"><rect class="cls-2" x="79.27" y="144.98" width="11.71" height="11.33"/></clipPath><clipPath id="clip-path-12"><rect class="cls-2" x="86.34" y="146.3" width="6.09" height="5.03"/></clipPath></defs><g id="Capa_2" data-name="Capa 2"><g id="TXT"><path class="cls-6" d="M95.9,19.41A17.81,17.81,0,1,1,78.09,1.6,17.81,17.81,0,0,1,95.9,19.41Z"/><polygon class="cls-1" points="70.75 13.12 73.12 13.12 73.12 23.77 78.47 23.77 78.47 25.7 70.75 25.7 70.75 13.12"/><g class="cls-7"><rect class="cls-1" x="70.75" y="13.12" width="7.72" height="12.58"/></g><path class="cls-1" d="M82.31,18.34h-.08l-.08-1.73H80.09c.06.82.08,1.7.08,2.93V25.7h2.37V21a3.75,3.75,0,0,1,.08-.71,2.07,2.07,0,0,1,2.12-1.73,2.75,2.75,0,0,1,.7.08V16.46a2.49,2.49,0,0,0-.57-.06,2.79,2.79,0,0,0-2.56,1.94"/><g class="cls-8"><rect class="cls-1" x="80.09" y="16.4" width="5.35" height="9.29"/></g><path class="cls-9" d="M37.21,107.44a17.81,17.81,0,1,1-17.8-17.81A17.8,17.8,0,0,1,37.21,107.44Z"/><g class="cls-10"><path class="cls-3" d="M10.65,100.87a24.49,24.49,0,0,1,4-.29A6.74,6.74,0,0,1,19,101.73a3.91,3.91,0,0,1,1.42,3.1A4.17,4.17,0,0,1,19.16,108a6.56,6.56,0,0,1-4.59,1.5,7.93,7.93,0,0,1-1.29-.08v5.29H10.65Zm2.63,6.55a5.7,5.7,0,0,0,1.29.1c2,0,3.19-.94,3.19-2.58s-1.12-2.4-3-2.4a6.86,6.86,0,0,0-1.52.13Z"/></g><path class="cls-3" d="M25.57,110.17v-.36h.11c.14,0,.22.06.22.18s-.09.19-.23.19h-.1m-.2-.49v1h.2v-.39h.1a.47.47,0,0,0,.34-.11.31.31,0,0,0,.09-.24.28.28,0,0,0-.11-.23.5.5,0,0,0-.31-.08l-.31,0"/><g class="cls-11"><rect class="cls-4" x="10.65" y="100.29" width="9.76" height="14.15"/></g><g class="cls-12"><path d="M21.22,112.38a6.17,6.17,0,0,0,2.7.72c1.17,0,1.68-.45,1.68-1.12s-.43-1-1.72-1.48c-2.05-.69-2.91-1.77-2.89-3,0-1.79,1.53-3.19,4-3.19a6.32,6.32,0,0,1,2.77.61l-.51,1.81a4.82,4.82,0,0,0-2.22-.58c-.95,0-1.47.44-1.47,1.06s.5,1,1.84,1.42c1.89.67,2.78,1.6,2.8,3.1,0,1.84-1.49,3.19-4.27,3.19a6.93,6.93,0,0,1-3.19-.73Z"/></g><path class="cls-4" d="M21,107.25c0,1.19.84,2.28,2.89,3,1.29.44,1.72.79,1.72,1.48s-.51,1.13-1.68,1.13a6.17,6.17,0,0,1-2.7-.73l-.51,1.85a6.93,6.93,0,0,0,3.19.73c2.78,0,4.27-1.35,4.27-3.19,0-1.5-.91-2.43-2.8-3.1-1.34-.46-1.84-.77-1.84-1.42s.52-1.06,1.47-1.06a4.82,4.82,0,0,1,2.22.58l.52-1.81a6.4,6.4,0,0,0-2.78-.61c-2.44,0-4,1.4-4,3.19"/><g class="cls-13"><rect class="cls-3" x="20.71" y="104.06" width="7.46" height="10.61"/></g><path class="cls-14" d="M37.22,54.76A17.81,17.81,0,1,1,19.41,37,17.81,17.81,0,0,1,37.22,54.76Z"/><g class="cls-15"><path d="M15.29,58l-1.19,3.8H11.49l4.43-13.4h3.23l4.5,13.4H20.94L19.68,58Zm4-1.85-1.09-3.29c-.26-.82-.49-1.73-.69-2.51h0c-.21.78-.42,1.71-.66,2.51L15.7,56.1Z"/></g><path class="cls-5" d="M16.77,52.53c.24-.79.45-1.73.66-2.5h0c.2.77.43,1.69.69,2.5l1.09,3.3H15.7Zm-.85-4.45L11.49,61.47H14.1l1.19-3.79h4.39l1.26,3.79h2.71l-4.5-13.39Z"/><g class="cls-16"><rect class="cls-5" x="11.49" y="48.08" width="12.16" height="13.4"/></g><path class="cls-5" d="M24.64,61.47h2.54V51.8H24.64Zm-.15-12.38a1.42,1.42,0,0,0,2.84,0,1.42,1.42,0,0,0-2.84,0"/><g class="cls-17"><rect class="cls-5" x="24.49" y="47.76" width="2.84" height="13.71"/></g><circle class="cls-18" cx="78.09" cy="148.95" r="17.9"/><path class="cls-19" d="M71.52,144.09A2.93,2.93,0,0,1,73.66,143a2.77,2.77,0,0,1-.71,2.11,2.35,2.35,0,0,1-2,.92,2.41,2.41,0,0,1,.6-1.89"/><path class="cls-19" d="M71,146.73a12.93,12.93,0,0,1,2.44-.61,3.05,3.05,0,0,1,2.67,1.32,2.86,2.86,0,0,0-1.48,2.5,3,3,0,0,0,1.84,2.69s-1.28,3.5-3,3.5c-.8,0-1.42-.52-2.26-.52s-1.7.54-2.26.54c-1.58,0-3.58-3.32-3.58-6s1.69-4,3.28-4c1,0,1.84.57,2.37.57"/><g class="cls-20"><g class="cls-20"><path class="cls-21" d="M91,151.5c-.42,1.45-.78,2.72-1.16,4a.7.7,0,0,1-.32.36,4.49,4.49,0,0,1-4.7-.47c.43-1.36.85-2.73,1.31-4.21,1.53,1.12,3.11,1,4.87.33"/><path class="cls-21" d="M86.46,145.55c.3.17.49.33.35.74-.41,1.23-.78,2.48-1.18,3.76-2-.85-2-.85-4.87-.36.39-1.32.76-2.61,1.15-3.88a.74.74,0,0,1,.39-.39,4.59,4.59,0,0,1,4.16.13"/><path class="cls-21" d="M84.92,150.53c.21.12.46.5.41.69-.34,1.27-.76,2.53-1.19,3.91-1.52-1.13-3.13-1-4.87-.34.4-1.38.75-2.63,1.14-3.87a.89.89,0,0,1,.44-.51,4.4,4.4,0,0,1,4.07.12"/></g></g><g class="cls-22"><g class="cls-22"><path class="cls-21" d="M92.42,146.62c-.4,1.35-.77,2.65-1.18,3.94a.65.65,0,0,1-.35.34,4.55,4.55,0,0,1-4.2-.17c-.17-.1-.39-.39-.35-.53.37-1.31.8-2.61,1.21-3.9,2.41.79,2.41.79,4.87.32"/></g></g></g></g></svg>