<svg xmlns="http://www.w3.org/2000/svg" xmlns:xlink="http://www.w3.org/1999/xlink" viewBox="0 0 101.06 168.86"><defs><style>.cls-1{fill:none;}.cls-2{fill:#e94a8b;}.cls-3{fill:#1d0913;stroke:#e94a8b;}.cls-24,.cls-3,.cls-9{stroke-miterlimit:10;}.cls-24,.cls-3{stroke-width:3.2px;}.cls-4{clip-path:url(#clip-path);}.cls-5{fill:#13110c;}.cls-6{clip-path:url(#clip-path-2);}.cls-7{clip-path:url(#clip-path-3);}.cls-8{clip-path:url(#clip-path-4);}.cls-9{fill:#292b2e;stroke:#595b5f;stroke-width:3.28px;}.cls-10{fill:#265aa6;}.cls-11{fill:#449dd7;}.cls-12{fill:#fff;}.cls-13{fill:url(#linear-gradient);}.cls-14{fill:url(#linear-gradient-2);}.cls-15{fill:url(#linear-gradient-3);}.cls-16,.cls-19{opacity:0.05;}.cls-17,.cls-19{fill:#1d1d1b;}.cls-18{fill:url(#linear-gradient-4);}.cls-20{fill:#e44e28;}.cls-21{fill:#ec662b;}.cls-22{fill:#ebebeb;}.cls-23{fill:#b9a157;}.cls-24{fill:#431338;stroke:#bf74ae;}.cls-25{fill:#bf74ae;}.cls-26{fill:#169bd8;}</style><clipPath id="clip-path"><rect class="cls-1" x="75.04" y="49.6" width="2.41" height="12.74"/></clipPath><clipPath id="clip-path-2"><rect class="cls-2" x="75.04" y="49.34" width="2.41" height="12.74"/></clipPath><clipPath id="clip-path-3"><rect class="cls-1" x="79.33" y="48.92" width="8.66" height="13.63"/></clipPath><clipPath id="clip-path-4"><path class="cls-2" d="M81.56,57.51c0-1.73.79-3,2.2-3a2,2,0,0,1,1.9,1.65,3,3,0,0,1,.06.6v1.38a2.44,2.44,0,0,1-.08.68,2,2,0,0,1-1.89,1.65c-1.4,0-2.19-1.23-2.19-2.91m4.16-8.85v5.22h0a2.72,2.72,0,0,0-2.45-1.22c-2.1,0-3.92,1.84-3.9,4.92,0,2.84,1.64,4.71,3.72,4.71a3.08,3.08,0,0,0,2.84-1.67h0L86,62.08h2c0-.63-.06-1.65-.06-2.59V48.66Z"/></clipPath><linearGradient id="linear-gradient" x1="87.54" y1="109.41" x2="87.54" y2="106.19" gradientUnits="userSpaceOnUse"><stop offset="0.39" stop-color="#dadada" stop-opacity="0"/><stop offset="1" stop-color="#dadada"/></linearGradient><linearGradient id="linear-gradient-2" x1="91.56" y1="107.81" x2="91.56" y2="104.46" xlink:href="#linear-gradient"/><linearGradient id="linear-gradient-3" x1="85.61" y1="110.84" x2="93.33" y2="110.84" gradientUnits="userSpaceOnUse"><stop offset="0" stop-color="#eeeded"/><stop offset="1" stop-color="#fff"/></linearGradient><linearGradient id="linear-gradient-4" x1="85.26" y1="105.28" x2="93.64" y2="105.28" xlink:href="#linear-gradient-3"/></defs><g id="Capa_2" data-name="Capa 2"><g id="Frames"><circle class="cls-3" cx="81.51" cy="55.26" r="17.81"/><g class="cls-4"><rect class="cls-5" x="75.04" y="49.6" width="2.41" height="12.74"/></g><rect class="cls-2" x="75.04" y="49.34" width="2.41" height="12.74"/><g class="cls-6"><rect class="cls-2" x="75.04" y="49.34" width="2.41" height="12.74"/></g><g class="cls-7"><path class="cls-5" d="M87.92,48.92V59.75c0,1,0,2,.06,2.59H86l-.09-1.46h0a3.08,3.08,0,0,1-2.84,1.67c-2.08,0-3.72-1.87-3.72-4.71,0-3.08,1.8-4.91,3.9-4.91a2.73,2.73,0,0,1,2.45,1.21h0V48.92Zm-2.2,8a3.05,3.05,0,0,0-.06-.6,2,2,0,0,0-1.9-1.65c-1.41,0-2.2,1.33-2.2,3.05s.79,2.91,2.19,2.91A2,2,0,0,0,85.64,59a2.44,2.44,0,0,0,.08-.68Z"/></g><path class="cls-2" d="M81.56,57.51c0-1.73.79-3,2.2-3a2,2,0,0,1,1.9,1.65,3,3,0,0,1,.06.6v1.38a2.44,2.44,0,0,1-.08.68,2,2,0,0,1-1.89,1.65c-1.4,0-2.19-1.23-2.19-2.91m4.16-8.85v5.22h0a2.72,2.72,0,0,0-2.45-1.22c-2.1,0-3.92,1.84-3.9,4.92,0,2.84,1.64,4.71,3.72,4.71a3.08,3.08,0,0,0,2.84-1.67h0L86,62.08h2c0-.63-.06-1.65-.06-2.59V48.66Z"/><g class="cls-8"><rect class="cls-2" x="79.31" y="48.66" width="8.67" height="13.63"/></g><circle class="cls-9" cx="81.51" cy="107.94" r="17.9"/><polygon class="cls-10" points="94.91 115.26 89.49 116.72 84.07 115.26 82.82 101.71 96.16 101.71 94.91 115.26"/><polygon class="cls-11" points="89.49 102.81 89.49 115.55 89.5 115.56 93.89 114.38 94.9 102.81 89.49 102.81"/><polygon class="cls-12" points="89.48 106.19 85.6 107.81 85.73 109.41 89.48 107.81 93.47 106.1 93.64 104.46 89.48 106.19"/><polygon class="cls-13" points="85.6 107.81 85.73 109.41 89.48 107.81 89.48 106.19 85.6 107.81"/><polygon class="cls-14" points="93.64 104.46 89.48 106.19 89.48 107.81 93.47 106.1 93.64 104.46"/><polygon class="cls-15" points="85.61 107.81 85.74 109.41 91.49 109.43 91.36 111.56 89.47 112.09 87.65 111.63 87.54 110.31 85.85 110.31 86.07 112.87 89.49 113.88 92.89 112.88 93.33 107.81 85.61 107.81"/><g class="cls-16"><polygon class="cls-17" points="89.48 107.81 85.6 107.81 85.73 109.41 89.48 109.42 89.48 107.81"/><polygon class="cls-17" points="89.48 112.09 89.47 112.09 87.64 111.63 87.53 110.31 85.84 110.31 86.06 112.87 89.48 113.88 89.48 112.09"/></g><polygon class="cls-18" points="85.25 104.46 93.64 104.46 93.47 106.1 85.46 106.1 85.25 104.46"/><polygon class="cls-19" points="89.48 104.46 85.25 104.46 85.46 106.1 89.48 106.1 89.48 104.46"/><polygon class="cls-20" points="68.07 115.3 66.86 101.78 80.11 101.78 78.9 115.3 73.48 116.81 68.07 115.3"/><polygon class="cls-21" points="73.49 115.66 77.87 114.44 78.9 102.89 73.49 102.89 73.49 115.66"/><polygon class="cls-22" points="73.49 107.91 71.29 107.91 71.14 106.21 73.49 106.21 73.49 104.55 73.48 104.55 69.33 104.55 69.37 104.99 69.78 109.56 73.49 109.56 73.49 107.91"/><polygon class="cls-22" points="73.49 112.21 73.48 112.21 71.63 111.71 71.52 110.39 70.62 110.39 69.85 110.39 70.08 113 73.48 113.94 73.49 113.94 73.49 112.21"/><polygon class="cls-12" points="73.48 107.91 73.48 109.56 75.52 109.56 75.33 111.71 73.48 112.21 73.48 113.94 76.88 113 76.91 112.72 77.3 108.35 77.34 107.91 76.89 107.91 73.48 107.91"/><polygon class="cls-12" points="73.48 104.55 73.48 105.58 73.48 106.2 73.48 106.21 77.48 106.21 77.48 106.21 77.49 106.21 77.52 105.83 77.59 104.99 77.64 104.55 73.48 104.55"/><path class="cls-23" d="M81.13,118.4v-1h.76v1h1v.72h-1v.95h-.76v-.95h-1v-.72Z"/><circle class="cls-24" cx="19.41" cy="149.45" r="17.81"/><path class="cls-25" d="M20.14,143.29l-3.57,5.9,3.81,6.25a.17.17,0,0,1,0,.14s-.06,0-.14,0H17.55c-.19,0-.32,0-.41-.13L16.38,154q-.37-.72-.81-1.5l-.86-1.54h0c-.25.51-.52,1-.8,1.53L13.08,154c-.27.5-.54,1-.82,1.5,0,.11-.14.13-.27.13H9.37s-.08,0-.08,0a.15.15,0,0,1,0-.13l3.7-6.07L9.4,143.28c0-.05,0-.09,0-.12a.15.15,0,0,1,.12,0h2.7a.86.86,0,0,1,.17,0,.38.38,0,0,1,.12.1c.22.52.49,1,.76,1.54s.56,1,.86,1.51.55,1,.8,1.51h0c.25-.52.51-1,.77-1.53s.54-1,.81-1.5.54-1,.8-1.5a.2.2,0,0,1,.07-.12.22.22,0,0,1,.16,0h2.51a.1.1,0,0,1,.13.08s0,.06,0,.08Z"/><path class="cls-25" d="M25.64,155.85a5.94,5.94,0,0,1-2.56-.53,4.13,4.13,0,0,1-1.79-1.62,5.17,5.17,0,0,1-.66-2.72,4.91,4.91,0,0,1,.66-2.51,4.84,4.84,0,0,1,1.89-1.84,6,6,0,0,1,3-.69h.25l.37,0v-3.76c0-.08,0-.13.12-.13h2.42a.11.11,0,0,1,.12.08v11.36c0,.21,0,.45,0,.71s0,.49.05.69a.19.19,0,0,1-.12.19,8.84,8.84,0,0,1-1.94.58A11.33,11.33,0,0,1,25.64,155.85Zm1.17-2.38v-5.24l-.32-.06-.39,0a2.88,2.88,0,0,0-1.35.31,2.67,2.67,0,0,0-1,.88,2.64,2.64,0,0,0-.39,1.51,3.21,3.21,0,0,0,.2,1.23,2.36,2.36,0,0,0,.53.84,2.08,2.08,0,0,0,.81.48,3.09,3.09,0,0,0,1,.15l.5,0a1,1,0,0,0,.43-.06Z"/><path class="cls-26" d="M23.27,8.47C20.47,5.68,17.8,3,17,0c-.79,3-3.46,5.68-6.26,8.47-4.2,4.2-9,9-9,16.09a15.23,15.23,0,0,0,30.45.1v-.1c0-7.14-4.76-11.89-9-16.09M8.25,28.1c-.93,0-4.38-6,2-12.29l4.23,4.62a.35.35,0,0,1,0,.51l0,0c-1,1-5.32,5.35-5.85,6.84-.11.31-.27.3-.37.29M17,35.93a5.23,5.23,0,0,1-5.24-5.24h0a5.44,5.44,0,0,1,1.3-3.45C14,26.08,17,22.83,17,22.83s2.94,3.3,3.93,4.39a5.17,5.17,0,0,1,1.31,3.47A5.23,5.23,0,0,1,17,35.93m10-8.49c-.12.25-.37.66-.72.67-.61,0-.68-.29-1.13-1-1-1.48-9.73-10.59-11.36-12.35-1.43-1.55-.2-2.65.37-3.22L17,8.76s6.25,5.92,8.85,10,1.71,7.55,1.18,8.71"/></g></g></svg>