<svg xmlns="http://www.w3.org/2000/svg" xmlns:xlink="http://www.w3.org/1999/xlink" viewBox="0 0 535 267.5"><defs><style>.cls-1{opacity:0.5;}.cls-2,.cls-3,.cls-4,.cls-5,.cls-6,.cls-7{fill:none;stroke-miterlimit:10;stroke-dasharray:2;}.cls-2{stroke-width:0.5px;stroke:url(#Degradado_sin_nombre_47);}.cls-3{stroke-width:0.25px;stroke:url(#Degradado_sin_nombre_47-2);}.cls-4{stroke-width:0.15px;stroke:url(#Degradado_sin_nombre_47-3);}.cls-5{stroke-width:0.09px;stroke:url(#Degradado_sin_nombre_47-4);}.cls-6{stroke-width:0.75px;stroke:url(#Degradado_sin_nombre_47-5);}.cls-7{stroke:url(#Degradado_sin_nombre_47-6);}</style><linearGradient id="Degradado_sin_nombre_47" x1="267.6" y1="267.4" x2="267.6" y2="40.65" gradientUnits="userSpaceOnUse"><stop offset="0" stop-color="#f6f6f6" stop-opacity="0.3"/><stop offset="0.51" stop-color="#bcbcbc" stop-opacity="0.67"/><stop offset="0.93" stop-color="#878787"/></linearGradient><linearGradient id="Degradado_sin_nombre_47-2" x1="267.55" y1="267.4" x2="267.55" y2="59.28" xlink:href="#Degradado_sin_nombre_47"/><linearGradient id="Degradado_sin_nombre_47-3" x1="267.7" y1="267.5" x2="267.7" y2="75.73" xlink:href="#Degradado_sin_nombre_47"/><linearGradient id="Degradado_sin_nombre_47-4" x1="267.6" y1="267.4" x2="267.6" y2="93.76" xlink:href="#Degradado_sin_nombre_47"/><linearGradient id="Degradado_sin_nombre_47-5" x1="267.65" y1="267.4" x2="267.65" y2="20.52" xlink:href="#Degradado_sin_nombre_47"/><linearGradient id="Degradado_sin_nombre_47-6" x1="267.5" y1="267.4" x2="267.5" y2="0" xlink:href="#Degradado_sin_nombre_47"/></defs><g id="Capa_2" data-name="Capa 2"><g id="TXT"><g class="cls-1"><path class="cls-2" d="M41.1,267.4c0-125,101.5-226.5,226.5-226.5h0c125.1,0,226.5,101.4,226.5,226.5"/><path class="cls-3" d="M59.5,267.4c.1-114.8,93.3-208,208.1-208h0c114.9,0,208,93.2,208,208"/><path class="cls-4" d="M76.1,267.5C76,161.6,161.8,75.8,267.6,75.8h0c105.8,0,191.7,85.7,191.7,191.7"/><path class="cls-5" d="M94,267.4c0-95.8,77.8-173.6,173.6-173.6h0c95.8,0,173.6,77.7,173.6,173.6"/><path class="cls-6" d="M21.2,267.4C21.1,131.3,131.5,20.9,267.6,20.9h0c136.1,0,246.5,110.4,246.5,246.5"/><path class="cls-7" d="M.5,267.4C.7,120,120.2.5,267.6.5h0C415.1.5,534.5,120.1,534.5,267.4"/></g></g></g></svg>