<!--?xml version="1.0" standalone="no"?-->
              <svg id="sw-js-blob-svg" viewBox="0 0 100 100" xmlns="http://www.w3.org/2000/svg" version="1.1">
                    <defs> 
                        <linearGradient id="sw-gradient" x1="0" x2="1" y1="1" y2="0">
                            <stop id="stop1" stop-color="rgba(23, 23, 29, 1)" offset="0%"></stop>
                            <stop id="stop2" stop-color="rgba(23, 23, 29, 1)" offset="100%"></stop>
                        </linearGradient>
                    </defs>
                <path fill="url(#sw-gradient)" d="M19.9,-23.4C27,-26.3,34.9,-22.9,32.1,-17.9C29.4,-12.9,16,-6.3,9.2,-2.7C2.4,0.8,2,1.1,1.9,2C1.7,3,1.7,4.4,0.8,6.4C-0.2,8.4,-2.1,11,-3.2,10.7C-4.2,10.4,-4.5,7.2,-9.3,5.8C-14.1,4.3,-23.6,4.5,-24.5,3.1C-25.4,1.6,-17.7,-1.5,-14.4,-5.6C-11,-9.7,-11.9,-14.8,-10.2,-14.4C-8.5,-13.9,-4.3,-7.9,1.1,-9.6C6.4,-11.2,12.7,-20.5,19.9,-23.4Z" width="100%" height="100%" transform="translate(50 50)" stroke-width="0" style="transition: all 0.3s ease 0s;" stroke="url(#sw-gradient)"></path>
              </svg>