<!--?xml version="1.0" standalone="no"?-->
              <svg id="sw-js-blob-svg" viewBox="0 0 100 100" xmlns="http://www.w3.org/2000/svg" version="1.1">
                    <defs> 
                        <linearGradient id="sw-gradient" x1="0" x2="1" y1="1" y2="0">
                            <stop id="stop1" stop-color="rgba(23, 23, 29, 1)" offset="0%"></stop>
                            <stop id="stop2" stop-color="rgba(23, 23, 29, 1)" offset="100%"></stop>
                        </linearGradient>
                    </defs>
                <path fill="url(#sw-gradient)" d="M11,-16.5C13.2,-15.7,13.2,-10.8,12.7,-7.2C12.3,-3.5,11.4,-1,10.6,1.2C9.8,3.5,9.2,5.4,7.8,6.5C6.5,7.7,4.5,8,0.8,14.6C-2.9,21.1,-8.3,33.9,-11.6,35C-14.9,36.1,-16.1,25.6,-17,18.3C-17.8,10.9,-18.2,6.8,-21.9,1.3C-25.6,-4.3,-32.6,-11.2,-33.7,-18.1C-34.8,-25.1,-29.9,-32,-23.3,-30.8C-16.7,-29.6,-8.4,-20.3,-2,-17.2C4.4,-14.1,8.8,-17.3,11,-16.5Z" width="100%" height="100%" transform="translate(50 50)" stroke-width="0" style="transition: all 0.3s ease 0s;" stroke="url(#sw-gradient)"></path>
              </svg>