<!--?xml version="1.0" standalone="no"?-->
              <svg id="sw-js-blob-svg" viewBox="0 0 100 100" xmlns="http://www.w3.org/2000/svg" version="1.1">
                    <defs> 
                        <linearGradient id="sw-gradient" x1="0" x2="1" y1="1" y2="0">
                            <stop id="stop1" stop-color="rgba(23, 23, 29, 1)" offset="0%"></stop>
                            <stop id="stop2" stop-color="rgba(23, 23, 29, 1)" offset="100%"></stop>
                        </linearGradient>
                    </defs>
                <path fill="url(#sw-gradient)" d="M6.8,-12.4C9,-9.1,11.2,-7.6,16.1,-5C21,-2.3,28.7,1.5,29.8,5.3C30.9,9.2,25.4,13.2,19.7,13.5C13.9,13.8,8,10.4,2.4,15.2C-3.1,19.9,-8.3,32.9,-12.4,34.9C-16.4,37,-19.4,28.2,-21.6,21.2C-23.8,14.2,-25.3,9,-28.3,2.7C-31.3,-3.6,-36,-11.1,-32.2,-12.8C-28.5,-14.6,-16.4,-10.7,-9.7,-11.8C-2.9,-13,-1.5,-19.2,0.4,-19.8C2.3,-20.5,4.6,-15.6,6.8,-12.4Z" width="100%" height="100%" transform="translate(50 50)" stroke-width="0" style="transition: all 0.3s ease 0s;" stroke="url(#sw-gradient)"></path>
              </svg>