<!--?xml version="1.0" standalone="no"?-->
              <svg id="sw-js-blob-svg" viewBox="0 0 100 100" xmlns="http://www.w3.org/2000/svg" version="1.1">
                    <defs> 
                        <linearGradient id="sw-gradient" x1="0" x2="1" y1="1" y2="0">
                            <stop id="stop1" stop-color="rgba(23, 23, 29, 1)" offset="0%"></stop>
                            <stop id="stop2" stop-color="rgba(23, 23, 29, 1)" offset="100%"></stop>
                        </linearGradient>
                    </defs>
                <path fill="url(#sw-gradient)" d="M13.3,-26C14.9,-19.7,12.4,-12.1,12.2,-7.1C12.1,-2.2,14.4,0.1,14.8,2.6C15.1,5.1,13.6,7.7,10.9,7.6C8.2,7.5,4.3,4.6,1.2,6.7C-1.9,8.9,-4.4,16.1,-6.7,17.8C-9.1,19.5,-11.4,15.6,-13.7,12.2C-16.1,8.9,-18.5,5.9,-19.3,2.6C-20.1,-0.8,-19.3,-4.6,-16.1,-5.6C-12.9,-6.6,-7.4,-4.8,-4.3,-10.4C-1.3,-16.1,-0.6,-29.2,2.6,-33.3C5.8,-37.3,11.7,-32.3,13.3,-26Z" width="100%" height="100%" transform="translate(50 50)" stroke-width="0" style="transition: all 0.3s ease 0s;" stroke="url(#sw-gradient)"></path>
              </svg>