<!--?xml version="1.0" standalone="no"?-->
              <svg id="sw-js-blob-svg" viewBox="0 0 100 100" xmlns="http://www.w3.org/2000/svg" version="1.1">
                    <defs> 
                        <linearGradient id="sw-gradient" x1="0" x2="1" y1="1" y2="0">
                            <stop id="stop1" stop-color="rgba(23, 23, 29, 1)" offset="0%"></stop>
                            <stop id="stop2" stop-color="rgba(23, 23, 29, 1)" offset="100%"></stop>
                        </linearGradient>
                    </defs>
                <path fill="url(#sw-gradient)" d="M19.3,-29.1C26.7,-25.4,35.4,-22.7,33.3,-17.9C31.3,-13.1,18.5,-6.2,14.9,0.4C11.2,7,16.7,13.1,17.7,19.6C18.7,26.1,15.2,33.1,11,31.6C6.8,30.2,1.8,20.4,-5.7,18.6C-13.3,16.8,-23.4,23,-27.9,21.9C-32.3,20.8,-31.1,12.6,-25.9,7.5C-20.7,2.5,-11.5,0.7,-10.2,-5.7C-8.9,-12.1,-15.5,-23.2,-15.1,-30C-14.7,-36.9,-7.3,-39.6,-0.7,-38.6C6,-37.5,12,-32.8,19.3,-29.1Z" width="100%" height="100%" transform="translate(50 50)" stroke-width="0" style="transition: all 0.3s ease 0s;" stroke="url(#sw-gradient)"></path>
              </svg>