<!--?xml version="1.0" standalone="no"?-->
              <svg id="sw-js-blob-svg" viewBox="0 0 100 100" xmlns="http://www.w3.org/2000/svg" version="1.1">
                    <defs> 
                        <linearGradient id="sw-gradient" x1="0" x2="1" y1="1" y2="0">
                            <stop id="stop1" stop-color="rgba(23, 23, 29, 1)" offset="0%"></stop>
                            <stop id="stop2" stop-color="rgba(23, 23, 29, 1)" offset="100%"></stop>
                        </linearGradient>
                    </defs>
                <path fill="url(#sw-gradient)" d="M8,-6.4C14.8,-8.1,27.7,-13.3,32.4,-12.1C37.2,-10.9,33.8,-3.3,27.1,-0.1C20.5,3.1,10.5,1.8,7.7,8.8C4.9,15.8,9.3,31,7.4,36.8C5.6,42.6,-2.4,38.9,-7.6,33.8C-12.9,28.7,-15.5,22.2,-16,16.6C-16.4,11.1,-14.8,6.5,-18.7,0.7C-22.6,-5,-32,-11.9,-33,-17.3C-34,-22.6,-26.6,-26.3,-19.7,-24.5C-12.8,-22.7,-6.4,-15.4,-2.9,-10.9C0.6,-6.3,1.2,-4.6,8,-6.4Z" width="100%" height="100%" transform="translate(50 50)" stroke-width="0" style="transition: all 0.3s ease 0s;" stroke="url(#sw-gradient)"></path>
              </svg>