<!--?xml version="1.0" standalone="no"?-->
              <svg id="sw-js-blob-svg" viewBox="0 0 100 100" xmlns="http://www.w3.org/2000/svg" version="1.1">
                    <defs> 
                        <linearGradient id="sw-gradient" x1="0" x2="1" y1="1" y2="0">
                            <stop id="stop1" stop-color="rgba(23, 23, 29, 1)" offset="0%"></stop>
                            <stop id="stop2" stop-color="rgba(23, 23, 29, 1)" offset="100%"></stop>
                        </linearGradient>
                    </defs>
                <path fill="url(#sw-gradient)" d="M21.5,-26.4C28.6,-29,35.4,-24.1,35.3,-18C35.2,-11.8,28.2,-4.4,24.8,2C21.5,8.5,21.9,13.9,20.3,19.9C18.7,25.9,15.1,32.5,11.2,29.9C7.3,27.4,3.1,15.7,-1.4,11.3C-5.8,7,-10.5,10.1,-18.5,10.6C-26.5,11.1,-37.9,9.1,-36.1,6.6C-34.3,4.1,-19.2,1.1,-14.7,-5.9C-10.2,-12.8,-16.2,-23.7,-15.5,-24C-14.8,-24.3,-7.4,-14,-0.1,-13.9C7.3,-13.8,14.5,-23.8,21.5,-26.4Z" width="100%" height="100%" transform="translate(50 50)" stroke-width="0" style="transition: all 0.3s ease 0s;" stroke="url(#sw-gradient)"></path>
              </svg>