<!--?xml version="1.0" standalone="no"?-->
              <svg id="sw-js-blob-svg" viewBox="0 0 100 100" xmlns="http://www.w3.org/2000/svg" version="1.1">
                    <defs> 
                        <linearGradient id="sw-gradient" x1="0" x2="1" y1="1" y2="0">
                            <stop id="stop1" stop-color="rgba(185, 161, 87, 1)" offset="0%"></stop>
                            <stop id="stop2" stop-color="rgba(80, 99, 172, 1)" offset="100%"></stop>
                        </linearGradient>
                    </defs>
                <path fill="url(#sw-gradient)" d="M10.5,-14.4C13.5,-14.3,15.9,-11.3,14.5,-8.4C13.1,-5.5,7.9,-2.5,5.3,-0.7C2.7,1.1,2.7,1.7,3,4C3.2,6.2,3.6,10,0.9,17.3C-1.9,24.7,-7.8,35.6,-10.2,34.9C-12.7,34.1,-11.7,21.7,-15,14.7C-18.3,7.8,-26,6.3,-28.4,2.8C-30.9,-0.7,-28.2,-6.2,-25.3,-11.2C-22.5,-16.3,-19.4,-20.9,-15.2,-20.4C-10.9,-19.9,-5.5,-14.4,-0.9,-13C3.7,-11.7,7.4,-14.5,10.5,-14.4Z" width="100%" height="100%" transform="translate(50 50)" stroke-width="0" style="transition: all 0.3s ease 0s;" stroke="url(#sw-gradient)"></path>
              </svg>