<!--?xml version="1.0" standalone="no"?-->
              <svg id="sw-js-blob-svg" viewBox="0 0 100 100" xmlns="http://www.w3.org/2000/svg" version="1.1">
                    <defs> 
                        <linearGradient id="sw-gradient" x1="0" x2="1" y1="1" y2="0">
                            <stop id="stop1" stop-color="rgba(23, 23, 29, 1)" offset="0%"></stop>
                            <stop id="stop2" stop-color="rgba(23, 23, 29, 1)" offset="100%"></stop>
                        </linearGradient>
                    </defs>
                <path fill="url(#sw-gradient)" d="M21.2,-29.1C26.3,-29.7,28.5,-21.9,25,-15.6C21.4,-9.2,12,-4.4,8.8,-0.4C5.6,3.6,8.6,6.9,8.7,8.3C8.7,9.8,5.7,9.4,2,13.6C-1.7,17.9,-6,26.6,-12.4,30.2C-18.8,33.9,-27.2,32.4,-26.7,26.7C-26.1,20.9,-16.5,11,-13.5,4.5C-10.4,-1.9,-13.8,-4.9,-13.8,-6.9C-13.8,-8.8,-10.3,-9.8,-7.5,-10.2C-4.6,-10.7,-2.3,-10.7,2.9,-15.1C8,-19.6,16,-28.5,21.2,-29.1Z" width="100%" height="100%" transform="translate(50 50)" stroke-width="0" style="transition: all 0.3s ease 0s;" stroke="url(#sw-gradient)"></path>
              </svg>