<!--?xml version="1.0" standalone="no"?-->
              <svg id="sw-js-blob-svg" viewBox="0 0 100 100" xmlns="http://www.w3.org/2000/svg" version="1.1">
                    <defs> 
                        <linearGradient id="sw-gradient" x1="0" x2="1" y1="1" y2="0">
                            <stop id="stop1" stop-color="rgba(23, 23, 29, 1)" offset="0%"></stop>
                            <stop id="stop2" stop-color="rgba(23, 23, 29, 1)" offset="100%"></stop>
                        </linearGradient>
                    </defs>
                <path fill="url(#sw-gradient)" d="M20.7,-31.3C25.4,-29.3,26.7,-21,24.5,-14.5C22.4,-8,16.8,-3.2,16.1,2.4C15.4,7.9,19.6,14.3,20,21.8C20.4,29.3,17.1,38,11.8,39C6.6,39.9,-0.6,33.1,-5.8,27.9C-11.1,22.7,-14.5,19.1,-18.4,15.5C-22.2,11.8,-26.6,8.1,-27.3,3.8C-28.1,-0.5,-25.3,-5.4,-22,-9C-18.8,-12.7,-15.1,-15.2,-11.3,-17.7C-7.6,-20.1,-3.8,-22.5,2.1,-25.8C8,-29.1,16.1,-33.3,20.7,-31.3Z" width="100%" height="100%" transform="translate(50 50)" stroke-width="0" style="transition: all 0.3s ease 0s;" stroke="url(#sw-gradient)"></path>
              </svg>