<!--?xml version="1.0" standalone="no"?-->
              <svg id="sw-js-blob-svg" viewBox="0 0 100 100" xmlns="http://www.w3.org/2000/svg" version="1.1">
                    <defs> 
                        <linearGradient id="sw-gradient" x1="0" x2="1" y1="1" y2="0">
                            <stop id="stop1" stop-color="rgba(23, 23, 29, 1)" offset="0%"></stop>
                            <stop id="stop2" stop-color="rgba(23, 23, 29, 1)" offset="100%"></stop>
                        </linearGradient>
                    </defs>
                <path fill="url(#sw-gradient)" d="M3.9,-12.7C5.3,-5.1,7,-4.5,10.5,-3C14.1,-1.4,19.5,1.1,19.1,2.6C18.7,4.2,12.4,4.8,8.8,5.8C5.1,6.9,4,8.4,2.7,8.4C1.4,8.4,-0.1,6.9,-5.4,9.4C-10.7,11.9,-19.8,18.5,-24.6,18.4C-29.5,18.2,-29.9,11.3,-26,6.7C-22.1,2,-13.9,-0.3,-9.6,-2.2C-5.3,-4.1,-4.9,-5.6,-4,-13.4C-3,-21.2,-1.5,-35.3,-0.2,-35.1C1.2,-34.9,2.4,-20.3,3.9,-12.7Z" width="100%" height="100%" transform="translate(50 50)" stroke-width="0" style="transition: all 0.3s ease 0s;" stroke="url(#sw-gradient)"></path>
              </svg>